<?xml version="1.0" encoding="iso-8859-1"?>
<!-- Generator: Adobe Illustrator 19.0.0, SVG Export Plug-In . SVG Version: 6.00 Build 0)  -->
<svg version="1.1" id="Layer_1" xmlns="http://www.w3.org/2000/svg" xmlns:xlink="http://www.w3.org/1999/xlink" x="0px" y="0px"
	 viewBox="0 0 480 480" style="enable-background:new 0 0 480 480;" xml:space="preserve">
<path style="fill:#DD6743;" d="M152,40c0-4.424,3.584-8,8-8h80c4.416,0,8,3.576,8,8v32h16V40c0-13.232-10.768-24-24-24h-80
	c-13.232,0-24,10.768-24,24v32h16V40z"/>
<g>
	<path style="fill:#A6E0B5;" d="M143.352,325.328c11.552,8.488,25.04,14.448,39.696,17.08c-5.016-7.592-11-17.856-16.408-30.016
		C158.432,315.504,150.592,319.832,143.352,325.328z"/>
	<path style="fill:#A6E0B5;" d="M176.128,292.848c7.76-1.712,15.736-2.68,23.872-2.68c8.128,0,16.096,0.96,23.84,2.672
		c3.952-11.256,6.976-23.704,7.872-36.84h-63.424C169.176,269.16,172.184,281.608,176.128,292.848z"/>
	<path style="fill:#A6E0B5;" d="M226.272,210.552c-8.504,2.08-17.288,3.28-26.272,3.28c-8.976,0-17.744-1.192-26.248-3.272
		c-2.744,9.232-4.76,19.12-5.464,29.448h63.424C231.016,229.664,229.008,219.776,226.272,210.552z"/>
	<path style="fill:#A6E0B5;" d="M233.352,312.392c-5.4,12.16-11.384,22.416-16.408,30.016c14.664-2.624,28.144-8.592,39.696-17.08
		C249.408,319.832,241.568,315.504,233.352,312.392z"/>
	<path style="fill:#A6E0B5;" d="M217.752,307.912c-11.736-2.248-23.816-2.24-35.544,0.008c6.144,13.368,13,24.096,17.784,30.864
		C204.768,332.008,211.616,321.272,217.752,307.912z"/>
	<path style="fill:#A6E0B5;" d="M295.592,256h-47.92c-0.888,14.904-4.088,28.904-8.432,41.472
		c10.688,4.088,20.728,9.792,29.76,17.112C283.936,299.112,293.712,278.672,295.592,256z"/>
</g>
<path style="fill:#78BA8C;" d="M307.28,216c3.04,10.152,4.72,20.88,4.72,32c0,61.76-50.24,112-112,112S88,309.76,88,248
	c0-14.104,2.728-27.56,7.512-40H56c-15.664,0-29.824-6.48-40-16.888V360c0,13.232,10.768,24,24,24h320c13.232,0,24-10.768,24-24
	V199.112C373.824,209.52,359.664,216,344,216H307.28z"/>
<path style="fill:#A6E0B5;" d="M273.032,185.848c-9.424,8.424-20,15.16-31.456,19.84c3.16,10.648,5.376,22.192,6.096,34.312h47.92
	C293.888,219.432,285.696,200.704,273.032,185.848z"/>
<path style="fill:#EDE7A6;" d="M440,384c-13.232,0-24,10.768-24,24v32c0,13.232,10.768,24,24,24s24-10.768,24-24v-32
	C464,394.768,453.232,384,440,384z M448,416h-16v-16h16V416z"/>
<path style="fill:#78BA8C;" d="M16,112v40c0,22.056,17.944,40,40,40h47.152c19.4-33.416,55.496-56,96.848-56
	c44.568,0,83.016,26.224,101.04,64H344c22.056,0,40-17.944,40-40v-16v-32c0-13.232-10.768-24-24-24H40C26.768,88,16,98.768,16,112z"
	/>
<g>
	<path style="fill:#A6E0B5;" d="M131,314.584c9.024-7.32,19.072-13.024,29.76-17.112c-4.336-12.576-7.544-26.576-8.432-41.472
		h-47.92C106.288,278.672,116.064,299.112,131,314.584z"/>
	<path style="fill:#A6E0B5;" d="M179.12,195.344c13.752,3.12,28.04,3.12,41.792-0.008c-6.816-16.744-15.288-30.168-20.904-38.12
		C194.4,165.168,185.936,178.608,179.12,195.344z"/>
	<path style="fill:#A6E0B5;" d="M236.248,190.488c9.104-3.8,17.68-9.152,25.44-15.936c-12.576-10.584-27.904-17.944-44.744-20.96
		C222.888,162.584,230.192,175.272,236.248,190.488z"/>
	<path style="fill:#A6E0B5;" d="M163.752,190.488c6.056-15.216,13.36-27.904,19.304-36.896c-16.832,3.016-32.16,10.376-44.744,20.96
		C146.072,181.336,154.648,186.688,163.752,190.488z"/>
	<path style="fill:#A6E0B5;" d="M104.408,240h47.92c0.72-12.112,2.928-23.664,6.096-34.312c-11.448-4.68-22.032-11.408-31.456-19.84
		C114.304,200.704,106.112,219.432,104.408,240z"/>
</g>
<g>
	<path style="fill:#42342A;" d="M448,368.808V60c0-33.088-26.912-60-60-60s-60,26.912-60,60v12h-48V40c0-22.056-17.944-40-40-40h-80
		c-22.056,0-40,17.944-40,40v32H40C17.944,72,0,89.944,0,112v40v208c0,22.056,17.944,40,40,40h320c22.056,0,40-17.944,40-40V160v-16
		v-32c0-22.056-17.944-40-40-40h-16V60c0-24.256,19.736-44,44-44s44,19.744,44,44v308.808c-18.232,3.72-32,19.872-32,39.192v32
		c0,22.056,17.944,40,40,40s40-17.944,40-40v-32C480,388.688,466.232,372.528,448,368.808z M136,40c0-13.232,10.768-24,24-24h80
		c13.232,0,24,10.768,24,24v32h-16V40c0-4.424-3.584-8-8-8h-80c-4.416,0-8,3.576-8,8v32h-16V40z M232,72h-64V48h64V72z M384,360
		c0,13.232-10.768,24-24,24H40c-13.232,0-24-10.768-24-24V191.112C26.176,201.52,40.336,208,56,208h39.512
		C90.728,220.44,88,233.896,88,248c0,61.76,50.24,112,112,112s112-50.24,112-112c0-11.12-1.68-21.848-4.72-32H344
		c15.664,0,29.824-6.48,40-16.888V360z M152.328,256c0.888,14.904,4.088,28.904,8.432,41.472
		c-10.688,4.088-20.728,9.792-29.76,17.112c-14.936-15.472-24.712-35.912-26.592-58.584H152.328z M200.008,157.216
		c5.624,7.944,14.088,21.368,20.904,38.12c-13.752,3.128-28.04,3.128-41.792,0.008C185.936,178.608,194.4,165.168,200.008,157.216z
		 M200,213.832c8.984,0,17.76-1.2,26.272-3.28c2.736,9.224,4.744,19.12,5.448,29.448h-63.424c0.704-10.32,2.72-20.216,5.464-29.448
		C182.256,212.632,191.024,213.832,200,213.832z M231.712,256c-0.896,13.144-3.912,25.584-7.872,36.84
		c-7.752-1.712-15.712-2.672-23.84-2.672c-8.136,0-16.112,0.968-23.872,2.68c-3.944-11.248-6.952-23.688-7.848-36.848H231.712z
		 M217.752,307.912c-6.144,13.36-12.984,24.096-17.76,30.872c-4.784-6.768-11.64-17.496-17.784-30.864
		C193.944,305.672,206.024,305.664,217.752,307.912z M166.648,312.392c5.4,12.16,11.384,22.416,16.408,30.016
		c-14.664-2.624-28.144-8.592-39.696-17.08C150.592,319.832,158.432,315.504,166.648,312.392z M233.352,312.392
		c8.216,3.112,16.048,7.44,23.288,12.936c-11.552,8.488-25.04,14.448-39.696,17.08C221.968,334.816,227.952,324.56,233.352,312.392z
		 M269,314.584c-9.024-7.32-19.072-13.024-29.76-17.112c4.336-12.576,7.544-26.576,8.432-41.472h47.92
		C293.712,278.672,283.936,299.112,269,314.584z M247.672,240c-0.72-12.112-2.928-23.664-6.096-34.312
		c11.448-4.68,22.032-11.408,31.456-19.84c12.664,14.856,20.856,33.584,22.56,54.152H247.672z M236.248,190.488
		c-6.056-15.216-13.36-27.904-19.304-36.896c16.832,3.016,32.16,10.376,44.744,20.96
		C253.928,181.336,245.352,186.688,236.248,190.488z M163.752,190.488c-9.104-3.8-17.68-9.152-25.44-15.936
		c12.576-10.584,27.904-17.944,44.744-20.96C177.112,162.584,169.808,175.272,163.752,190.488z M126.968,185.848
		c9.424,8.424,20,15.16,31.456,19.84c-3.16,10.648-5.376,22.192-6.096,34.312h-47.92
		C106.112,219.432,114.304,200.704,126.968,185.848z M384,112v32v16c0,22.056-17.944,40-40,40h-42.96
		c-18.024-37.776-56.472-64-101.04-64c-41.344,0-77.448,22.584-96.848,56H56c-22.056,0-40-17.944-40-40v-40
		c0-13.232,10.768-24,24-24h320C373.232,88,384,98.768,384,112z M464,440c0,13.232-10.768,24-24,24s-24-10.768-24-24v-32
		c0-13.232,10.768-24,24-24s24,10.768,24,24V440z"/>
	<rect x="432" y="400" style="fill:#42342A;" width="16" height="16"/>
	<rect x="352" y="432" style="fill:#42342A;" width="16" height="16"/>
	<rect x="320" y="432" style="fill:#42342A;" width="16" height="16"/>
	<rect x="288" y="432" style="fill:#42342A;" width="16" height="16"/>
	<rect x="224" y="432" style="fill:#42342A;" width="16" height="16"/>
	<rect x="192" y="432" style="fill:#42342A;" width="16" height="16"/>
	<rect x="160" y="432" style="fill:#42342A;" width="16" height="16"/>
	<rect x="96" y="432" style="fill:#42342A;" width="16" height="16"/>
	<rect x="64" y="432" style="fill:#42342A;" width="16" height="16"/>
	<rect x="32" y="432" style="fill:#42342A;" width="16" height="16"/>
</g>
<g>
</g>
<g>
</g>
<g>
</g>
<g>
</g>
<g>
</g>
<g>
</g>
<g>
</g>
<g>
</g>
<g>
</g>
<g>
</g>
<g>
</g>
<g>
</g>
<g>
</g>
<g>
</g>
<g>
</g>
</svg>
